<?xml version="1.0" encoding="utf-8"?>
<!-- Generator: Adobe Illustrator 19.2.1, SVG Export Plug-In . SVG Version: 6.00 Build 0)  -->
<svg version="1.1" id="Layer_1" xmlns="http://www.w3.org/2000/svg" xmlns:xlink="http://www.w3.org/1999/xlink" x="0px" y="0px"
	 viewBox="0 0 126 67.7" style="enable-background:new 0 0 126 67.7;" xml:space="preserve">
<style type="text/css">
	.st0{fill:#FFFFFF;}
	.st1{fill:#D50032;}
	.st2{fill:#002D72;}
</style>
<path class="st0" d="M10.3,67.7C4.6,67.7,0,63.1,0,57.4V10.3C0,4.6,4.6,0,10.3,0h105.4c5.7,0,10.3,4.6,10.3,10.3v47.1
	c0,5.7-4.6,10.3-10.3,10.3H10.3z"/>
<path class="st1" d="M120.5,5.4c-1.3-1.3-3-2-4.8-2H86.2l17,28.3l1.6,0.2l0.9,1.3l0,1.2l1.1,0.2l1,1.4v1.2l1.1,0.2
	c0,0,1.1,1.2,1.1,1.2l0,2.6c0,0,2.4,2.2,4.5,3c1.5,0.6,1.7,3,2.5,4.3c1.2,1.8,2.7,2.6,2.4,3.6c-0.8,2.8-3.6,7.4-6.3,7.7
	c0,0-6.6,0-10.5,0l0,4.5h13.1c3.8,0,6.9-3.1,6.9-6.9V10.3C122.5,8.5,121.8,6.7,120.5,5.4z"/>
<path class="st2" d="M76.2,3.4H10.3c-1.8,0-3.6,0.7-4.8,2c-1.3,1.3-2,3-2,4.8v47.1c0,1.8,0.7,3.6,2,4.8c1.3,1.3,3,2,4.8,2h42.8
	c-1.1-1.8-2.3-3.8-2.7-4.4l-5.1,0c0-12.7,4.3-19.7,9.4-21c0.7-0.1,0.4-3.6-0.5-4.6c0,0-2.5,0.1-3-0.1c-0.6-0.2-0.2-0.8-0.2-0.8
	l2.4-5.2l-0.3-1.4l-8.8,0c-0.1,0,7.3-5.1,7.3-5.1C52,8.1,65.7,7.1,74,12.6c4.9,3.3,5.3,9.7,4.9,14.3c-0.1,0.3-1.3,0.1-1.3,0.1
	s-0.8,4.9,1.4,4.9l9.7,0c3.9-0.1,7.7,2.5,7.7,2.5l1-3.4L76.2,3.4z M17.6,54.6c-2.6,0-4.7-2-4.8-4.6s2-4.7,4.6-4.8c0,0,0.1,0,0.1,0
	c2.6,0,4.7,2.2,4.6,4.8C22.2,52.5,20.1,54.5,17.6,54.6z"/>
</svg>
